<svg xmlns="http://www.w3.org/2000/svg" version="1.1" xmlns:xlink="http://www.w3.org/1999/xlink" xmlns:svgjs="http://svgjs.com/svgjs" width="426" height="426"><svg width="426" height="426" viewBox="0 0 426 426" fill="none" xmlns="http://www.w3.org/2000/svg">
<path fill-rule="evenodd" clip-rule="evenodd" d="M213 425.245C330.22 425.245 425.245 330.22 425.245 213C425.245 95.7802 330.22 0.754883 213 0.754883C95.7802 0.754883 0.754883 95.7802 0.754883 213C0.754883 330.22 95.7802 425.245 213 425.245ZM213 408.461C321.428 408.461 409.327 320.562 409.327 212.134C409.327 103.706 321.428 15.8075 213 15.8075C104.572 15.8075 16.6733 103.706 16.6733 212.134C16.6733 320.562 104.572 408.461 213 408.461Z" fill="#2C2828"></path>
<path d="M134.35 295.306L123.699 300.167L111.941 286.223L118.583 276.609L111.314 267.989L79.168 316.68L87.7197 326.82L141.405 303.673L134.35 295.306ZM105.16 308.534C103.367 309.323 98.7205 311.615 91.2198 315.41C92.1112 314.152 93.5507 312.215 95.5382 309.599C97.9258 306.429 99.4564 304.343 100.13 303.341L107.046 293.279L115.811 303.674L105.16 308.534Z" fill="#2C2828"></path>
<path d="M172.817 317.587L140.845 366.253L151.849 369.674L168.543 343.347C170.306 340.654 172.804 336.25 176.036 330.135C175.432 336.546 175.06 341.466 174.92 344.896L173.701 376.467L185.022 379.987L186.435 321.821L172.817 317.587Z" fill="#2C2828"></path>
<path d="M266.946 373.162L250.949 319.534L240.461 322.663L256.459 376.29L266.946 373.162Z" fill="#2C2828"></path>
<path d="M300.126 284.865L316.25 298.41L312.73 302.6L296.58 298.237C292.042 297.023 288.416 297.73 285.702 300.359C285.375 300.662 285.069 300.983 284.785 301.322C283.683 302.634 282.818 303.964 282.19 305.313L288.614 310.169C288.785 309.879 289.013 309.565 289.297 309.227C290.3 308.12 291.582 307.753 293.144 308.127L307.938 311.784C306.572 317.278 307.755 322.314 311.488 326.893C312.326 327.958 313.253 328.917 314.269 329.77C320.321 334.854 326.653 335.265 333.265 331.002C335.642 329.462 337.915 327.401 340.084 324.819C342.857 321.518 346.167 317.405 350.015 312.481L307.165 276.485L300.126 284.865ZM332.887 319.207C329.474 323.27 325.876 324.073 322.092 321.617C321.591 321.268 321.087 320.88 320.579 320.454C317.617 317.965 316.609 315.169 317.555 312.066C317.927 310.935 318.54 309.862 319.393 308.846L323.233 304.276L336.12 315.101C334.711 316.95 333.634 318.318 332.887 319.207Z" fill="#2C2828"></path>
<path d="M327.328 201.045L381.014 185.244L378.181 175.62L343.902 185.709L372.857 154.889L369.496 146.112L315.81 161.914L318.643 171.538L353.081 161.401L324.004 192.689L327.328 201.045Z" fill="#2C2828"></path>
<path d="M333.532 92.5722L292.569 130.701L300.025 138.712L340.989 100.583L333.532 92.5722ZM356.096 98.0738L358.242 88.9407L339.321 84.9189L337.472 92.3028L356.096 98.0738Z" fill="#2C2828"></path>
<path d="M263.966 50.0599L260.366 58.4391L270.878 62.9556L252.387 105.995L262.442 110.315L280.933 67.2756L291.826 71.9557L295.426 63.5764L263.966 50.0599Z" fill="#2C2828"></path>
<path d="M196.009 99.9061L192.873 79.0821L198.284 78.2674L207.512 92.2211C210.114 96.1334 213.301 98.001 217.076 97.8239C217.521 97.8127 217.962 97.7742 218.4 97.7084C220.094 97.4533 221.623 97.0274 222.986 96.4308L221.379 88.5401C221.059 88.6442 220.681 88.7291 220.243 88.7949C218.76 88.9625 217.555 88.3892 216.631 87.0752L207.953 74.5477C212.611 71.3311 215.055 66.771 215.284 60.8675C215.359 59.5146 215.299 58.1823 215.101 56.8705C213.924 49.0547 209.446 44.5587 201.667 43.3824C198.866 42.9658 195.798 43.0086 192.464 43.5106C188.201 44.1525 182.998 45.0478 176.854 46.1964L185.187 101.536L196.009 99.9061ZM194.15 52.4794C199.397 51.6894 202.627 53.4668 203.84 57.8116C203.985 58.4046 204.107 59.029 204.206 59.6849C204.782 63.5108 203.689 66.2745 200.927 67.976C199.9 68.5779 198.73 68.9775 197.418 69.1751L191.516 70.0639L189.01 53.4211C191.289 52.9662 193.002 52.6523 194.15 52.4794Z" fill="#2C2828"></path>
<path d="M131.979 131.379L127.356 120.623L141.558 109.177L151.022 116.031L159.801 108.955L111.837 75.7365L101.508 84.0609L123.458 138.247L131.979 131.379ZM119.403 101.903C118.654 100.093 116.466 95.3966 112.839 87.8135C114.077 88.7327 115.981 90.2148 118.552 92.2599C121.669 94.7173 123.72 96.2938 124.707 96.9895L134.612 104.127L124.026 112.659L119.403 101.903Z" fill="#2C2828"></path>
<path d="M98.8223 199.915L68.9105 187.949C64.8375 186.329 62.2422 185.265 61.1246 184.758C65.175 185.103 67.944 185.296 69.4317 185.336L100.999 186.548L103.601 176.682L77.3768 160.194C75.0405 158.746 72.3864 157.203 69.4146 155.565C73.5027 156.556 76.3384 157.201 77.9217 157.501L109.527 164.089L112.613 153.762L57.1405 143.937L53.6277 155.693L83.4667 173.695C84.823 174.561 86.9499 175.745 89.8474 177.245C85.9505 176.773 83.687 176.53 83.0569 176.514L47.86 174.997L44.2285 187.151L95.9503 209.527L98.8223 199.915Z" fill="#2C2828"></path>
</svg><style>@media (prefers-color-scheme: light) { :root { filter: contrast(1) brightness(0.1); } }
@media (prefers-color-scheme: dark) { :root { filter: invert(100%); } }
</style></svg>