<svg width="65" height="24" viewBox="0 0 65 24" fill="none" xmlns="http://www.w3.org/2000/svg">
<path d="M42.8206 18.3984H43.8206V19.3984L42.8206 18.3984Z" fill="#F36161"/>
<path d="M53.7106 22H54.7106V23L53.7106 22Z" fill="#F36161"/>
<path d="M0.689819 18.3984H1.68982V19.3984L0.689819 18.3984Z" fill="#F36161"/>
<path d="M11.5844 22H12.5844V23L11.5844 22Z" fill="#F36161"/>
<path d="M18.4493 9.69922L19.4508 10.6993L18.4493 11.0664V9.69922Z" fill="#F36161"/>
<path d="M21.2371 12.9102L22.2386 13.9103L21.2371 14.2773V12.9102Z" fill="#F36161"/>
<path d="M16.8556 0.999997L17.8571 2.0001H16.1937L16.8556 0.999997Z" fill="#F36161"/>
<path d="M58.9801 1.01158L59.9817 2.01169H58.3183L58.9801 1.01158Z" fill="#F36161"/>
<path d="M60.5792 9.69922L61.5807 10.6993L60.5792 11.0664V9.69922Z" fill="#F36161"/>
<path d="M63.3689 12.9102L64.3704 13.9103L63.3689 14.2773V12.9102Z" fill="#F36161"/>
<path d="M21.24 18.4H18.45V22H11.58V18.4H0.69V13.9L9.6 0.999996H16.86L8.94 12.91H11.79V9.7H18.45V12.91H21.24V18.4Z" fill="#F36161"/>
<path d="M31.7374 22.48C29.8774 22.48 28.2274 22.05 26.7874 21.19C25.3674 20.31 24.2474 19.05 23.4274 17.41C22.6274 15.75 22.2274 13.78 22.2274 11.5C22.2274 9.22 22.6274 7.26 23.4274 5.62C24.2474 3.96 25.3674 2.7 26.7874 1.84C28.2274 0.959996 29.8774 0.519997 31.7374 0.519997C33.5974 0.519997 35.2374 0.959996 36.6574 1.84C38.0974 2.7 39.2174 3.96 40.0174 5.62C40.8374 7.26 41.2474 9.22 41.2474 11.5C41.2474 13.78 40.8374 15.75 40.0174 17.41C39.2174 19.05 38.0974 20.31 36.6574 21.19C35.2374 22.05 33.5974 22.48 31.7374 22.48ZM31.7374 16.81C33.3374 16.81 34.1374 15.04 34.1374 11.5C34.1374 7.96 33.3374 6.19 31.7374 6.19C30.1374 6.19 29.3374 7.96 29.3374 11.5C29.3374 15.04 30.1374 16.81 31.7374 16.81Z" fill="#F36161"/>
<path d="M63.3689 18.4H60.5789V22H53.7089V18.4H42.8189V13.9L51.7289 0.999996H58.9889L51.0689 12.91H53.9189V9.7L60.5792 9.69922L60.5789 12.91L63.3689 12.9102L63.3689 18.4Z" fill="#F36161"/>
<path d="M22.24 19.4H19.45V23H12.58V19.4H1.69V14.9L10.6 2H17.86L9.94 13.91H12.79V10.7H19.45V13.91H22.24V19.4ZM32.7374 23.48C30.8774 23.48 29.2274 23.05 27.7874 22.19C26.3674 21.31 25.2474 20.05 24.4274 18.41C23.6274 16.75 23.2274 14.78 23.2274 12.5C23.2274 10.22 23.6274 8.26 24.4274 6.62C25.2474 4.96 26.3674 3.7 27.7874 2.84C29.2274 1.96 30.8774 1.52 32.7374 1.52C34.5974 1.52 36.2374 1.96 37.6574 2.84C39.0974 3.7 40.2174 4.96 41.0174 6.62C41.8374 8.26 42.2474 10.22 42.2474 12.5C42.2474 14.78 41.8374 16.75 41.0174 18.41C40.2174 20.05 39.0974 21.31 37.6574 22.19C36.2374 23.05 34.5974 23.48 32.7374 23.48ZM32.7374 17.81C34.3374 17.81 35.1374 16.04 35.1374 12.5C35.1374 8.96 34.3374 7.19 32.7374 7.19C31.1374 7.19 30.3374 8.96 30.3374 12.5C30.3374 16.04 31.1374 17.81 32.7374 17.81ZM64.3689 19.4H61.5789V23H54.7089V19.4H43.8189V14.9L52.7289 2H59.9889L52.0689 13.91H54.9189V10.7H61.5789V13.91H64.3689V19.4Z" fill="#AE2535"/>
</svg>
