<svg width="10" height="27" viewBox="0 0 10 27" fill="none" xmlns="http://www.w3.org/2000/svg">
<path d="M1.50107 25H2.52841V26H2.50107L1.50107 25Z" fill="#AE2535"/>
<path d="M9.28213 9.59385L8.27734 8.59375V9.96093L9.28213 9.59385Z" fill="#AE2535"/>
<path d="M2.5 9.58999H9.28V26H2.5V9.58999ZM5.89 8.27C4.67 8.27 3.68 7.95 2.92 7.31C2.18 6.65 1.81 5.82 1.81 4.82C1.81 3.82 2.18 2.99999 2.92 2.35999C3.68 1.7 4.67 1.37 5.89 1.37C7.13 1.37 8.12 1.68 8.86 2.3C9.6 2.91999 9.97 3.71999 9.97 4.7C9.97 5.73999 9.6 6.6 8.86 7.28C8.12 7.94 7.13 8.27 5.89 8.27Z" fill="#AE2535"/>
<path d="M1.5 8.59H8.28V25H1.5V8.59ZM4.89 7.27C3.67 7.27 2.68 6.95 1.92 6.31C1.18 5.65 0.81 4.82 0.81 3.82C0.81 2.82 1.18 2 1.92 1.36C2.68 0.699999 3.67 0.369999 4.89 0.369999C6.13 0.369999 7.12 0.679999 7.86 1.3C8.6 1.92 8.97 2.72 8.97 3.7C8.97 4.74 8.6 5.6 7.86 6.28C7.12 6.94 6.13 7.27 4.89 7.27Z" fill="#F36161"/>
</svg>
