<svg width="15" height="27" viewBox="0 0 15 27" fill="none" xmlns="http://www.w3.org/2000/svg">
<path d="M10.0288 5.89854L9.02728 4.89844V6.26562L10.0288 5.89854Z" fill="#AE2535"/>
<path d="M0 14.4384H1.02734V15.4384H1L0 14.4384Z" fill="#AE2535"/>
<path d="M13.3902 10.4895L12.3887 9.48942V10.8566L13.3902 10.4895Z" fill="#AE2535"/>
<path d="M12.9718 20.7241L11.9702 19.724L12.3609 21.3137L12.9718 20.7241Z" fill="#AE2535"/>
<path d="M14.59 25.43C13.57 26.01 12.18 26.3 10.42 26.3C8.12 26.3 6.35 25.75 5.11 24.65C3.87 23.53 3.25 21.86 3.25 19.64V15.44H1V10.49H3.25V5.9H10.03V10.49L13.3902 10.4895L13.39 15.44H10.03V19.58C10.03 20.08 10.16 20.47 10.42 20.75C10.68 21.03 11.02 21.17 11.44 21.17C12.02 21.17 12.53 21.02 12.97 20.72L14.59 25.43Z" fill="#AE2535"/>
<path d="M13.59 24.43C12.57 25.01 11.18 25.3 9.42 25.3C7.12 25.3 5.35 24.75 4.11 23.65C2.87 22.53 2.25 20.86 2.25 18.64V14.44H0V9.49H2.25V4.9H9.03V9.49H12.39V14.44H9.03V18.58C9.03 19.08 9.16 19.47 9.42 19.75C9.68 20.03 10.02 20.17 10.44 20.17C11.02 20.17 11.53 20.02 11.97 19.72L13.59 24.43Z" fill="#F36161"/>
</svg>
