<svg width="19" height="27" viewBox="0 0 19 27" fill="none" xmlns="http://www.w3.org/2000/svg">
<g clip-path="url(#clip0)">
<path d="M11.4367 25H12.464V26H12.4367L11.4367 25Z" fill="#AE2535"/>
<path d="M3.62937 14.6186L4.07031 14.3203L4.72266 15.5195L4.625 15.6094L3.62937 14.6186Z" fill="#AE2535"/>
<path d="M9.85 9.29C12.73 9.29 14.93 9.94 16.45 11.24C17.97 12.52 18.73 14.5 18.73 17.18V26H12.43V23.84C11.65 25.48 10.1 26.3 7.78 26.3C6.48 26.3 5.37 26.08 4.45 25.64C3.55 25.18 2.86 24.57 2.38 23.81C1.92 23.03 1.69 22.16 1.69 21.2C1.69 19.58 2.31 18.35 3.55 17.51C4.79 16.67 6.67 16.25 9.19 16.25H11.92C11.7 14.97 10.67 14.33 8.83 14.33C8.09 14.33 7.34 14.45 6.58 14.69C5.82 14.91 5.17 15.22 4.63 15.62L2.47 11.15C3.41 10.57 4.54 10.12 5.86 9.8C7.2 9.46 8.53 9.29 9.85 9.29ZM9.82 22.22C10.3 22.22 10.73 22.09 11.11 21.83C11.49 21.57 11.77 21.18 11.95 20.66V19.52H10.27C8.89 19.52 8.2 19.98 8.2 20.9C8.2 21.28 8.34 21.6 8.62 21.86C8.92 22.1 9.32 22.22 9.82 22.22Z" fill="#AE2535"/>
<path d="M8.85 8.29C11.73 8.29 13.93 8.94 15.45 10.24C16.97 11.52 17.73 13.5 17.73 16.18V25H11.43V22.84C10.65 24.48 9.1 25.3 6.78 25.3C5.48 25.3 4.37 25.08 3.45 24.64C2.55 24.18 1.86 23.57 1.38 22.81C0.92 22.03 0.69 21.16 0.69 20.2C0.69 18.58 1.31 17.35 2.55 16.51C3.79 15.67 5.67 15.25 8.19 15.25H10.92C10.7 13.97 9.67 13.33 7.83 13.33C7.09 13.33 6.34 13.45 5.58 13.69C4.82 13.91 4.17 14.22 3.63 14.62L1.47 10.15C2.41 9.57 3.54 9.12 4.86 8.8C6.2 8.46 7.53 8.29 8.85 8.29ZM8.82 21.22C9.3 21.22 9.73 21.09 10.11 20.83C10.49 20.57 10.77 20.18 10.95 19.66V18.52H9.27C7.89 18.52 7.2 18.98 7.2 19.9C7.2 20.28 7.34 20.6 7.62 20.86C7.92 21.1 8.32 21.22 8.82 21.22Z" fill="#F36161"/>
</g>
<defs>
<clipPath id="clip0">
<rect width="19" height="27" fill="white"/>
</clipPath>
</defs>
</svg>
