<svg width="31" height="27" viewBox="0 0 31 27" fill="none" xmlns="http://www.w3.org/2000/svg">
<g clip-path="url(#clip0)">
<path d="M1.49857 25H2.52591V26H2.49857L1.49857 25Z" fill="#AE2535"/>
<path d="M12.2408 25H13.9986V26H13.2408L12.2408 25Z" fill="#AE2535"/>
<path d="M22.979 25L23.979 26H24.0103V25H22.979Z" fill="#AE2535"/>
<path d="M8.94891 9.59001L7.94739 8.5899V9.95709L8.94891 9.59001Z" fill="#AE2535"/>
<path d="M24.2186 9.29C26.1986 9.29 27.7786 9.9 28.9586 11.12C30.1586 12.34 30.7586 14.18 30.7586 16.64V26H23.979L23.9786 17.81C23.9786 15.93 23.3686 14.99 22.1486 14.99C21.5086 14.99 20.9886 15.23 20.5886 15.71C20.2086 16.19 20.0186 16.95 20.0186 17.99V26H13.2386V17.81C13.2386 15.93 12.6286 14.99 11.4086 14.99C10.7686 14.99 10.2486 15.23 9.84857 15.71C9.46857 16.19 9.27857 16.95 9.27857 17.99V26H2.49857V9.59L8.94891 9.59001L8.94857 11.12C10.1686 9.9 11.7186 9.29 13.5986 9.29C14.6986 9.29 15.6886 9.5 16.5686 9.92C17.4486 10.32 18.1686 10.94 18.7286 11.78C19.3886 10.98 20.1886 10.37 21.1286 9.95C22.0686 9.51 23.0986 9.29 24.2186 9.29Z" fill="#AE2535"/>
<path d="M23.22 8.29C25.2 8.29 26.78 8.9 27.96 10.12C29.16 11.34 29.76 13.18 29.76 15.64V25H22.98V16.81C22.98 14.93 22.37 13.99 21.15 13.99C20.51 13.99 19.99 14.23 19.59 14.71C19.21 15.19 19.02 15.95 19.02 16.99V25H12.24V16.81C12.24 14.93 11.63 13.99 10.41 13.99C9.77 13.99 9.25 14.23 8.85 14.71C8.47 15.19 8.28 15.95 8.28 16.99V25H1.5V8.59H7.95V10.12C9.17 8.9 10.72 8.29 12.6 8.29C13.7 8.29 14.69 8.5 15.57 8.92C16.45 9.32 17.17 9.94 17.73 10.78C18.39 9.98 19.19 9.37 20.13 8.95C21.07 8.51 22.1 8.29 23.22 8.29Z" fill="#F36161"/>
</g>
<defs>
<clipPath id="clip0">
<rect width="31" height="27" fill="white"/>
</clipPath>
</defs>
</svg>
