<svg width="20" height="27" viewBox="0 0 20 27" fill="none" xmlns="http://www.w3.org/2000/svg">
<g clip-path="url(#clip0)">
<path d="M7.94744 9.58973L6.94592 8.58963V9.95682L7.94744 9.58973Z" fill="#AE2535"/>
<path d="M0.505035 25H1.53238V26H1.50504L0.505035 25Z" fill="#AE2535"/>
<path d="M11.8375 25H12.8648V26H12.8375L11.8375 25Z" fill="#AE2535"/>
<path d="M12.3902 10.4895L11.3887 9.48942V10.8566L12.3902 10.4895Z" fill="#AE2535"/>
<path d="M12.9 9.29C14.92 9.29 16.54 9.9 17.76 11.12C19 12.34 19.62 14.18 19.62 16.64V26H12.84V17.81C12.84 15.93 12.17 14.99 10.83 14.99C10.07 14.99 9.45 15.26 8.97 15.8C8.51 16.32 8.28 17.15 8.28 18.29V26H1.5V9.59H7.95V11.21C8.59 10.57 9.33 10.09 10.17 9.77C11.01 9.45 11.92 9.29 12.9 9.29Z" fill="#AE2535"/>
<path d="M11.9 8.29C13.92 8.29 15.54 8.9 16.76 10.12C18 11.34 18.62 13.18 18.62 15.64V25H11.84V16.81C11.84 14.93 11.17 13.99 9.83 13.99C9.07 13.99 8.45 14.26 7.97 14.8C7.51 15.32 7.28 16.15 7.28 17.29V25H0.5V8.59H6.95V10.21C7.59 9.57 8.33 9.09 9.17 8.77C10.01 8.45 10.92 8.29 11.9 8.29Z" fill="#F36161"/>
</g>
<defs>
<clipPath id="clip0">
<rect width="20" height="27" fill="white"/>
</clipPath>
</defs>
</svg>
