<svg width="15" height="27" viewBox="0 0 15 27" fill="none" xmlns="http://www.w3.org/2000/svg">
<path d="M14.2597 9.28428L13.2582 8.28418V9.65137L14.2597 9.28428Z" fill="#AE2535"/>
<path d="M1.5004 24.9951H2.53555V25.9951H2.5004L1.5004 24.9951Z" fill="#AE2535"/>
<path d="M7.94702 8.58894L8.94854 9.58905L7.94702 9.95613V8.58894Z" fill="#AE2535"/>
<path d="M8.94844 11.3551C10.1484 9.97512 11.9184 9.28512 14.2584 9.28512V15.2851C13.7184 15.2051 13.2184 15.1651 12.7584 15.1651C10.4384 15.1651 9.27844 16.3451 9.27844 18.7051V25.9951H2.49844V9.58512H8.94844V11.3551Z" fill="#AE2535"/>
<path d="M7.95 10.36C9.15 8.98 10.92 8.29 13.26 8.29V14.29C12.72 14.21 12.22 14.17 11.76 14.17C9.44 14.17 8.28 15.35 8.28 17.71V25H1.5V8.59H7.95V10.36Z" fill="#F36161"/>
</svg>
