<svg width="14" height="27" viewBox="0 0 14 27" fill="none" xmlns="http://www.w3.org/2000/svg">
<path d="M1.50107 25H2.52841V26H2.50107L1.50107 25Z" fill="#AE2535"/>
<path d="M9.28213 9.59385L8.27734 8.59375V9.96094L9.28213 9.59385Z" fill="#AE2535"/>
<path d="M2.74219 7.78906L1.73828 6.78906H3.60547V7.78906H2.74219Z" fill="#AE2535"/>
<path d="M10.7656 3.11328L12.1445 1.98828L13.1484 2.98828L12.8281 3.24609L10.7656 3.11328Z" fill="#AE2535"/>
<path d="M2.5 9.59H9.28V26H2.5V9.59ZM6.7 2.99H13.15L7.24 7.79H2.74L6.7 2.99Z" fill="#AE2535"/>
<path d="M1.5 8.59H8.28V25H1.5V8.59ZM5.7 1.99H12.15L6.24 6.79H1.74L5.7 1.99Z" fill="#F36161"/>
</svg>
