<svg width="53" height="26" viewBox="0 0 53 26" fill="none" xmlns="http://www.w3.org/2000/svg">
<g filter="url(#filter0_d)">
<path fill-rule="evenodd" clip-rule="evenodd" d="M48.4625 1.28917L47.4609 0.289062V1.65625L48.4625 1.28917ZM4.5 17H5.5V18L4.5 17ZM15.2422 17H16.2422V18L15.2422 17ZM26.9805 17H25.9805L26.9805 18V17ZM35.7031 17H36.7031V18L35.7031 17ZM42.1497 0.593826L43.1513 1.59393L42.1497 1.96101V0.593826ZM11.9503 1.59001L10.9488 0.589905V1.95709L11.9503 1.59001Z" fill="#AE2535"/>
</g>
<path d="M27.22 1.29C29.2 1.29 30.78 1.9 31.96 3.12C33.16 4.34 33.76 6.18 33.76 8.64V18H26.98V9.81C26.98 7.93 26.37 6.99 25.15 6.99C24.51 6.99 23.99 7.23 23.59 7.71C23.21 8.19 23.02 8.95 23.02 9.99V18H16.24V9.81C16.24 7.93 15.63 6.99 14.41 6.99C13.77 6.99 13.25 7.23 12.85 7.71C12.47 8.19 12.28 8.95 12.28 9.99V18H5.5V1.59H11.95V3.12C13.17 1.9 14.72 1.29 16.6 1.29C17.7 1.29 18.69 1.5 19.57 1.92C20.45 2.32 21.17 2.94 21.73 3.78C22.39 2.98 23.19 2.37 24.13 1.95C25.07 1.51 26.1 1.29 27.22 1.29ZM43.1512 3.36C44.3512 1.98 46.1212 1.29 48.4612 1.29V7.29C47.9212 7.21 47.4212 7.17 46.9612 7.17C44.6412 7.17 43.4812 8.35 43.4812 10.71V18H36.7012V1.59H43.1512V3.36Z" fill="#AE2535"/>
<path d="M26.22 0.289999C28.2 0.289999 29.78 0.899999 30.96 2.12C32.16 3.34 32.76 5.18 32.76 7.64V17H25.98V8.81C25.98 6.93 25.37 5.99 24.15 5.99C23.51 5.99 22.99 6.23 22.59 6.71C22.21 7.19 22.02 7.95 22.02 8.99V17H15.24V8.81C15.24 6.93 14.63 5.99 13.41 5.99C12.77 5.99 12.25 6.23 11.85 6.71C11.47 7.19 11.28 7.95 11.28 8.99V17H4.5V0.589998H10.95V2.12C12.17 0.899999 13.72 0.289999 15.6 0.289999C16.7 0.289999 17.69 0.499999 18.57 0.92C19.45 1.32 20.17 1.94 20.73 2.78C21.39 1.98 22.19 1.37 23.13 0.949999C24.07 0.509999 25.1 0.289999 26.22 0.289999ZM42.1512 2.36C43.3512 0.979999 45.1212 0.289999 47.4612 0.289999V6.29C46.9212 6.21 46.4212 6.17 45.9612 6.17C43.6412 6.17 42.4812 7.35 42.4812 9.71V17H35.7012V0.589998H42.1512V2.36Z" fill="#F36161"/>
<defs>
<filter id="filter0_d" x="0.5" y="0.289062" width="51.9625" height="25.7109" filterUnits="userSpaceOnUse" color-interpolation-filters="sRGB">
<feFlood flood-opacity="0" result="BackgroundImageFix"/>
<feColorMatrix in="SourceAlpha" type="matrix" values="0 0 0 0 0 0 0 0 0 0 0 0 0 0 0 0 0 0 127 0"/>
<feOffset dy="4"/>
<feGaussianBlur stdDeviation="2"/>
<feColorMatrix type="matrix" values="0 0 0 0 0 0 0 0 0 0 0 0 0 0 0 0 0 0 0.25 0"/>
<feBlend mode="normal" in2="BackgroundImageFix" result="effect1_dropShadow"/>
<feBlend mode="normal" in="SourceGraphic" in2="effect1_dropShadow" result="shape"/>
</filter>
</defs>
</svg>
