<svg width="100" height="100" viewBox="0 0 100 100" fill="none" xmlns="http://www.w3.org/2000/svg">
<rect width="100" height="100" fill="white"/>
<circle cx="50" cy="50" r="50" fill="black"/>
<path fill-rule="evenodd" clip-rule="evenodd" d="M39.1432 24.4038L38.2762 23L37.4329 24.4182L13 65.5099H15.3268L38.3087 26.8586L49.3834 44.7891L50.2342 46.1666L51.085 44.7891L62.1598 26.8586L64.1161 30.1489L64.2298 29.967L65.2723 28.1799L63.0356 24.4182L62.1923 23L61.3252 24.4038L50.2342 42.3607L39.1432 24.4038ZM77.7115 49.1005C77.2438 49.574 76.7043 49.9291 76.1597 50.1803C76.1248 50.1965 76.0899 50.2122 76.0548 50.2275L85.1416 65.5099H87.4685L77.7115 49.1005Z" fill="white"/>
<path fill-rule="evenodd" clip-rule="evenodd" d="M77.1617 68.7161H78.742H79.4652L68.6103 49.72L66.8738 50.7122L77.1617 68.7161Z" fill="white"/>
<path fill-rule="evenodd" clip-rule="evenodd" d="M45.322 68.7161L57.3761 48.2805L56.948 49.6719C63.5624 51.7071 68.7014 51.7868 72.4585 50.4917C76.2574 49.1823 78.556 46.4932 79.4554 43.2503C81.2251 36.8695 77.5557 28.5944 70.2297 24.4795L69.376 24L68.8786 24.8433L43 68.7161H43.742H45.322ZM71.8068 48.6009C68.616 49.7007 63.9824 49.7248 57.6604 47.7984L70.0901 26.726C76.1825 30.6053 78.9444 37.6094 77.5281 42.7157C76.8028 45.3309 74.9766 47.5083 71.8068 48.6009Z" fill="white"/>
</svg>
