<svg width="46" height="18" viewBox="0 0 46 18" fill="none" xmlns="http://www.w3.org/2000/svg">
<path d="M45.4625 1.28917L44.4609 0.289062V1.65625L45.4625 1.28917Z" fill="#AE2535"/>
<path d="M1.5 17H2.52734V18H2.5L1.5 17Z" fill="#AE2535"/>
<path d="M12.2422 17H14V18H13.2422L12.2422 17Z" fill="#AE2535"/>
<path d="M22.9805 17L23.9805 18H24.0117V17H22.9805Z" fill="#AE2535"/>
<path d="M32.7031 17H33.7383V18H33.7031L32.7031 17Z" fill="#AE2535"/>
<path d="M39.1497 0.593826L40.1513 1.59393L39.1497 1.96101V0.593826Z" fill="#AE2535"/>
<path d="M8.95034 1.59001L7.94882 0.589905V1.95709L8.95034 1.59001Z" fill="#AE2535"/>
<path d="M24.22 1.29C26.2 1.29 27.78 1.9 28.96 3.12C30.16 4.34 30.76 6.18 30.76 8.64V18H23.9805L23.98 9.81C23.98 7.93 23.37 6.99 22.15 6.99C21.51 6.99 20.99 7.23 20.59 7.71C20.21 8.19 20.02 8.95 20.02 9.99V18H13.24V9.81C13.24 7.93 12.63 6.99 11.41 6.99C10.77 6.99 10.25 7.23 9.85 7.71C9.47 8.19 9.28 8.95 9.28 9.99V18H2.5V1.59L8.95034 1.59001L8.95 3.12C10.17 1.9 11.72 1.29 13.6 1.29C14.7 1.29 15.69 1.5 16.57 1.92C17.45 2.32 18.17 2.94 18.73 3.78C19.39 2.98 20.19 2.37 21.13 1.95C22.07 1.51 23.1 1.29 24.22 1.29Z" fill="#AE2535"/>
<path d="M40.1512 3.36C41.3512 1.98 43.1212 1.29 45.4612 1.29V7.29C44.9212 7.21 44.4212 7.17 43.9612 7.17C41.6412 7.17 40.4812 8.35 40.4812 10.71V18H33.7012V1.59H40.1512V3.36Z" fill="#AE2535"/>
<path d="M23.2239 0.297811C25.2039 0.297811 26.7839 0.907811 27.9639 2.12781C29.1639 3.34781 29.7639 5.18781 29.7639 7.64781V17.0078H22.9839V8.81781C22.9839 6.93781 22.3739 5.99781 21.1539 5.99781C20.5139 5.99781 19.9939 6.23781 19.5939 6.71781C19.2139 7.19781 19.0239 7.95781 19.0239 8.99781V17.0078H12.2439V8.81781C12.2439 6.93781 11.6339 5.99781 10.4139 5.99781C9.77391 5.99781 9.25391 6.23781 8.85391 6.71781C8.47391 7.19781 8.28391 7.95781 8.28391 8.99781V17.0078H1.50391V0.597811H7.95391V2.12781C9.17391 0.907811 10.7239 0.297811 12.6039 0.297811C13.7039 0.297811 14.6939 0.507812 15.5739 0.927812C16.4539 1.32781 17.1739 1.94781 17.7339 2.78781C18.3939 1.98781 19.1939 1.37781 20.1339 0.957812C21.0739 0.517811 22.1039 0.297811 23.2239 0.297811ZM39.1551 2.36781C40.3551 0.987811 42.1251 0.297811 44.4651 0.297811V6.29781C43.9251 6.21781 43.4251 6.17781 42.9651 6.17781C40.6451 6.17781 39.4851 7.35781 39.4851 9.71781V17.0078H32.7051V0.597811H39.1551V2.36781Z" fill="#F36161"/>
</svg>
